# Blender 4.1.1
# www.blender.org
mtllib Cande.mtl
o Caf
v -0.744030 0.411541 1.097639
v -0.439409 3.238439 0.744030
v -0.744030 0.411541 -1.097639
v -0.439409 3.238439 -0.744030
v 0.744030 0.411541 1.097639
v 0.439409 3.238439 0.744030
v 0.744030 0.389910 -1.116045
v 0.439409 3.238439 -0.744030
v 0.027684 4.272066 0.704532
v 0.027684 4.272066 -0.704532
v -0.439409 1.318223 -0.744030
v -0.439409 1.318223 0.744030
v 0.439409 1.318223 -0.744030
v 0.439409 1.318223 0.744030
v -0.744030 0.805498 0.762435
v -0.744030 3.543060 0.744030
v -0.744030 3.543060 -0.744030
v 0.716346 3.571233 -0.704532
v 0.716346 3.571233 0.704532
v 0.744030 0.827129 -0.744030
v 0.744030 0.827129 0.744030
v -0.744030 0.827129 -0.744030
v 0.000000 0.411541 -1.097639
v 0.000000 3.964651 -0.744030
v 0.000000 0.411541 1.097639
v 0.000000 3.964651 0.744030
v -0.000000 0.805498 0.762435
v -0.000000 0.805498 -0.762435
v 0.000000 3.660030 -0.744030
v 0.000000 3.660030 0.744030
v 0.000000 1.318223 0.744030
v 0.000000 1.318223 -0.744030
v -0.439409 1.318223 0.711673
v -0.439409 3.238439 0.711673
v 0.000000 3.660030 -0.711673
v 0.439409 3.238439 -0.711673
v 0.000000 3.660030 0.711673
v 0.439409 1.318223 -0.711673
v 0.000000 1.318223 0.711673
v 0.439409 3.238439 0.711673
v 0.439409 1.318223 0.711673
v -0.439409 3.238439 -0.711673
v -0.439409 1.318223 -0.711673
v 0.000000 1.318223 -0.711673
v 0.744030 3.543060 -0.744030
v 0.744030 3.543060 0.744030
v 0.000000 4.300239 0.744030
v 0.000000 4.300239 -0.744030
v 0.693265 3.548552 -0.704532
v 0.693265 3.548552 0.704532
v 0.004602 4.249385 0.704532
v 0.004602 4.249385 -0.704532
v -0.810421 -0.261054 1.189584
v -0.810421 -0.261054 -1.189584
v 0.810421 -0.261054 1.189584
v 0.810421 -0.261054 -1.189584
v 0.000000 -0.261054 -1.189584
v 0.000000 -0.261054 1.189584
v 0.744030 2.143842 -0.702778
v 0.744030 2.143842 0.702778
v 0.744030 1.547364 -0.702778
v 0.744030 1.547364 0.702778
v 0.744030 2.185095 0.744030
v 0.744030 2.185095 -0.744030
v 0.744030 1.506112 -0.744030
v 0.744030 1.506112 0.744030
v 0.713733 2.143842 0.702778
v 0.713733 2.143842 -0.702778
v 0.713733 1.547364 -0.702778
v 0.713733 1.547364 0.702778
v 0.000000 0.371336 1.189584
v 0.810421 0.371336 1.189584
v 0.000000 0.371336 -1.189584
v -0.810421 0.371336 -1.189584
v -0.810421 0.371336 1.189584
v 0.810421 0.371336 -1.189584
v 0.750134 0.805498 -0.762435
v 0.750134 0.411541 -1.097639
v 0.750134 0.411541 1.097639
v 0.750134 0.805498 0.762435
v -0.747538 0.411541 -1.097639
v -0.747538 0.411541 1.097639
v -0.747538 0.805498 -0.762435
v -0.747538 0.805498 0.762435
v 0.000000 0.389910 -1.116045
v -0.744030 0.389910 -1.116045
v 0.000000 0.389910 1.116045
v 0.744030 0.389910 1.116045
v -0.000000 0.827129 0.744030
v -0.744030 0.827129 0.744030
v -0.000000 0.827129 -0.744030
v 0.744030 0.805498 -0.762435
v 0.744030 0.411541 -1.097639
v -0.744030 0.389910 1.116045
v 0.744030 0.805498 0.762435
v -0.744030 0.805498 -0.762435
v 0.778535 0.827129 -0.744030
v 0.778535 0.389910 -1.116045
v 0.778535 0.827129 0.744030
v 0.778535 0.389910 1.116045
v -0.775940 0.827129 -0.744030
v -0.775940 0.389910 -1.116045
v -0.775940 0.389910 1.116045
v -0.775940 0.827129 0.744030
v -0.744030 0.833238 -0.786616
v -0.744030 0.439281 -1.132452
v 0.744030 0.833238 -0.786616
v 0.744030 0.439281 -1.132452
v 0.744030 0.833238 0.786616
v 0.744030 0.439281 1.132452
v -0.744030 0.439281 1.132452
v -0.744030 0.833238 0.786616
v 0.000000 0.833238 -0.786616
v 0.000000 0.439281 -1.132452
v 0.000000 0.833238 0.786616
v 0.000000 0.439281 1.132452
v 0.750134 0.833238 -0.786616
v 0.750134 0.439281 -1.132452
v 0.750134 0.833238 0.786616
v 0.750134 0.439281 1.132452
v -0.747538 0.833238 -0.786616
v -0.747538 0.439281 -1.132452
v -0.747538 0.439281 1.132452
v -0.747538 0.833238 0.786616
vn -1.0000 -0.0000 -0.0000
vn -0.6923 -0.7216 -0.0000
vn 1.0000 -0.0000 -0.0000
vn -0.0000 1.0000 -0.0000
vn -0.0000 -0.0000 -1.0000
vn -0.0000 0.6571 0.7538
vn -0.0000 -0.0000 1.0000
vn -0.7133 0.7009 -0.0000
vn -0.0000 -0.7821 0.6232
vn -0.0000 -0.7821 -0.6232
vn -0.0000 0.6571 -0.7538
vn 0.6923 -0.7216 -0.0000
vn 0.7133 0.7009 -0.0000
vn -0.7009 0.7133 -0.0000
vn 0.7009 -0.7133 -0.0000
vn -0.0000 -1.0000 -0.0000
vn 0.2694 0.9630 -0.0000
vn -0.0000 0.9696 -0.2449
vn -0.2694 0.9630 -0.0000
vn -0.0000 0.9696 0.2449
vn -0.0000 0.6480 -0.7616
vn -0.0000 0.6480 0.7616
vn -0.0000 0.6597 -0.7515
vn -0.0000 0.6597 0.7515
vt 0.523094 0.564878
vt 0.523094 0.092510
vt 0.781905 0.092510
vt 0.781905 0.564878
vt 0.977590 0.564878
vt 0.977590 0.638203
vt 0.971963 0.638203
vt 0.971963 0.564878
vt 0.230566 0.880423
vt 0.230566 0.678928
vt 0.672164 0.678928
vt 0.672164 0.880424
vt 0.176661 0.354403
vt 0.100237 0.354403
vt 0.100237 0.350738
vt 0.176661 0.350738
vt 0.241189 0.529846
vt 0.382142 0.529846
vt 0.382142 0.613313
vt 0.241189 0.613313
vt 0.511547 0.060755
vt 0.382142 0.005110
vt 0.252736 0.060755
vt 0.382142 -0.039183
vt 0.354843 0.872735
vt 0.354843 0.873796
vt 0.348443 0.873796
vt 0.348443 0.872735
vt 0.380550 0.765997
vt 0.380550 0.614661
vt 0.385373 0.613313
vt 0.385373 0.764649
vt 0.523094 -0.039183
vt 0.781905 -0.039183
vt 0.229642 0.060755
vt 0.100236 0.005110
vt -0.029169 0.060755
vt 0.100236 -0.039183
vt 0.329150 0.613924
vt 0.329150 0.743329
vt 0.321408 0.743329
vt 0.321408 0.613924
vt 0.336892 0.613314
vt 0.336892 0.614375
vt 0.329150 0.614375
vt 0.329150 0.613314
vt 0.329150 0.613314
vt 0.321408 0.613314
vt 0.176661 0.100960
vt 0.229642 0.419221
vt 0.382142 0.045316
vt 0.305717 0.100960
vt 0.100236 0.045316
vt 0.023812 0.100960
vt 0.458566 0.354403
vt 0.458566 0.100960
vt 0.511547 0.239988
vt 0.511547 0.329604
vt 0.511547 0.419221
vt 0.100237 0.419221
vt 0.023812 0.354403
vt -0.029169 0.419221
vt -0.029169 0.329604
vt -0.029169 0.239988
vt 0.305717 0.354403
vt 0.252736 0.419221
vt 0.382142 0.354403
vt 0.382142 0.419221
vt 0.336892 0.743780
vt 0.329150 0.743780
vt 0.361243 0.613314
vt 0.361243 0.614375
vt 0.354843 0.614375
vt 0.354843 0.613314
vt -0.040716 0.529846
vt 0.100236 0.529846
vt 0.100236 0.613313
vt -0.040716 0.613313
vt 0.416306 0.766162
vt 0.416306 0.689738
vt 0.419971 0.689738
vt 0.419971 0.766162
vt 0.023812 0.350738
vt 0.599518 0.873965
vt 0.599518 0.564878
vt 0.675943 0.620522
vt 0.675943 0.873965
vt 0.100236 0.041651
vt 0.176661 0.097296
vt 0.023812 0.097296
vt 0.523094 0.873965
vt 0.523094 0.620522
vt 0.416306 0.613313
vt 0.419971 0.613313
vt 0.983218 0.972177
vt 0.983218 0.638203
vt 0.988846 0.638203
vt 0.988846 0.972177
vt 0.988846 0.564878
vt 0.994473 0.564878
vt 0.994473 0.638203
vt 0.983218 0.564878
vt 0.983218 0.638203
vt 0.977591 0.638203
vt 0.977591 0.564878
vt 0.983218 0.564878
vt 0.994473 0.972177
vt 0.977590 0.972177
vt 0.971963 0.972177
vt 0.983218 0.972177
vt 0.977591 0.972177
vt 0.306845 0.587650
vt 0.607327 0.587650
vt 0.615750 0.593658
vt 0.298422 0.593658
vt 0.607327 0.438198
vt 0.306845 0.438198
vt 0.298422 0.432190
vt 0.615750 0.432190
vt 0.698576 0.701324
vt 0.053127 0.701324
vt 0.053127 0.366738
vt 0.698576 0.366738
vt 0.371782 0.858385
vt 0.371782 0.613314
vt 0.375727 0.613314
vt 0.375727 0.858385
vt 0.380550 0.614661
vt 0.380550 0.765997
vt 0.375727 0.764649
vt 0.788775 -0.034283
vt 1.033846 -0.034283
vt 1.033846 -0.030338
vt 0.788775 -0.030338
vt 0.241189 0.529846
vt 0.241189 0.613314
vt 0.675943 0.978675
vt 0.675943 0.564878
vt 0.785931 0.564878
vt 0.785931 0.978675
vt 0.523094 0.529846
vt 0.523094 0.613313
vt 0.895920 0.564878
vt 0.895920 0.978675
vt 0.672164 0.477432
vt 0.230566 0.477432
vt 0.230566 0.074441
vt 0.672164 0.074441
vt 0.371782 0.613314
vt 0.371782 0.804501
vt 0.366513 0.804501
vt 0.366513 0.613314
vt 0.659922 0.489674
vt 0.242808 0.489674
vt 0.242808 0.666686
vt 0.659922 0.666686
vt 0.139070 0.613314
vt 0.139070 0.857775
vt 0.035327 0.857775
vt 0.035327 0.613313
vt 0.361243 0.851244
vt 0.361243 0.692041
vt 0.366513 0.692041
vt 0.366513 0.851244
vt 0.366513 0.613314
vt 0.425240 0.613313
vt 0.425240 0.692041
vt 0.419971 0.692041
vt 0.419971 0.613313
vt -0.029169 0.266243
vt -0.029169 0.519065
vt -0.040716 0.260365
vt 0.382142 0.519065
vt 0.511547 0.519065
vt 0.229642 0.519065
vt 0.229642 0.266243
vt 0.241189 0.260365
vt 0.100236 0.519065
vt 0.252736 0.519065
vt 0.971963 0.953094
vt 0.895920 0.888391
vt 0.895920 0.629581
vt 0.336892 0.916928
vt 0.342893 0.613314
vt 0.342893 0.916928
vt -0.029169 0.250673
vt -0.035170 0.419221
vt -0.035170 0.250673
vt 0.361243 0.873186
vt 0.361243 0.873796
vt 0.354843 0.873796
vt 0.354843 0.873186
vt 0.035327 1.001530
vt -0.040716 0.936827
vt -0.040716 0.678016
vt 0.229642 0.250673
vt 0.235192 0.250673
vt 0.235192 0.419221
vt 0.354843 0.743329
vt 0.348443 0.743329
vt 0.348443 0.613313
vt 0.348443 0.916928
vt 0.342893 0.916928
vt 0.342893 0.613313
vt 0.252736 0.514126
vt 0.382142 0.514126
vt -0.029169 0.514126
vt 0.100236 0.514126
vt 0.229642 0.424161
vt 0.100237 0.424161
vt 0.511547 0.424161
vt 0.382142 0.424161
vt 0.511547 0.514126
vt 0.229642 0.514126
vt -0.029169 0.424161
vt 0.252736 0.424161
vt 0.512609 0.514126
vt 0.512609 0.424161
vt 0.517549 0.419221
vt 0.517548 0.519065
vt -0.030231 0.424161
vt -0.030231 0.514126
vt -0.035170 0.519065
vt 0.252126 0.424161
vt 0.252126 0.514126
vt 0.247186 0.519065
vt 0.247186 0.419221
vt 0.230252 0.514126
vt 0.230252 0.424161
vt 0.235192 0.519065
vt 0.139070 0.743780
vt 0.139070 0.614375
vt 0.139070 0.613313
vt 0.230239 0.613313
vt 0.230239 0.614375
vt 0.230239 0.743780
vt 0.230239 0.873186
vt 0.230239 0.873796
vt 0.139070 0.873796
vt 0.139070 0.873186
vt 0.361243 0.743780
vt 0.354843 0.743780
vt 0.385373 0.704119
vt 0.386763 0.614165
vt 0.393106 0.613313
vt 0.393106 0.704488
vt 0.354843 0.613924
vt 0.348443 0.613924
vt 0.336892 0.873186
vt 0.329150 0.873186
vt 0.407183 0.614165
vt 0.408572 0.704119
vt 0.400839 0.704488
vt 0.400839 0.613314
vt 0.414916 0.614165
vt 0.416306 0.704119
vt 0.408572 0.704488
vt 0.408572 0.613314
vt 0.329150 0.872735
vt 0.321408 0.872735
vt 0.336892 0.873796
vt 0.329150 0.873796
vt 0.393106 0.704119
vt 0.394496 0.614165
vt 0.400839 0.613313
vt 0.400839 0.704488
vt 0.354843 0.613314
vt 0.348443 0.613314
vt 0.329150 0.873796
vt 0.321408 0.873796
vt 0.230239 0.743329
vt 0.230239 0.613924
vt 0.321408 0.613314
vt 0.321408 0.613924
vt 0.230239 0.872735
s 0
usemtl Material.001
f 90/1/1 16/2/1 17/3/1 22/4/1
f 29/5/2 8/6/2 36/7/2 35/8/2
f 20/9/3 65/10/3 66/11/3 21/12/3
f 12/13/4 31/14/4 39/15/4 33/16/4
f 74/17/5 73/18/5 57/19/5 54/20/5
f 45/21/5 24/22/5 17/23/5 48/24/5
f 92/25/6 77/26/6 117/27/6 107/28/6
f 18/29/7 10/30/7 52/31/7 49/32/7
f 17/3/8 16/2/8 47/33/8 48/34/8
f 16/35/7 26/36/7 46/37/7 47/38/7
f 1/39/9 25/40/9 116/41/9 111/42/9
f 78/43/10 93/44/10 108/45/10 118/46/10
f 82/47/9 1/39/9 111/42/9 123/48/9
f 12/13/7 2/49/7 16/35/7 90/50/7
f 29/51/5 4/52/5 17/23/5 24/22/5
f 30/53/7 6/54/7 46/37/7 26/36/7
f 13/55/5 8/56/5 45/21/5 64/57/5 65/58/5 20/59/5
f 31/14/7 12/13/7 90/50/7 89/60/7
f 6/54/7 14/61/7 21/62/7 66/63/7 63/64/7 46/37/7
f 4/52/5 11/65/5 22/66/5 17/23/5
f 32/67/5 13/55/5 20/59/5 91/68/5
f 11/65/5 32/67/5 91/68/5 22/66/5
f 14/61/7 31/14/7 89/60/7 21/62/7
f 2/49/7 30/53/7 26/36/7 16/35/7
f 8/56/5 29/51/5 24/22/5 45/21/5
f 93/44/10 23/69/10 114/70/10 108/45/10
f 80/71/11 95/72/11 109/73/11 119/74/11
f 72/75/7 71/76/7 58/77/7 55/78/7
f 13/79/4 32/80/4 44/81/4 38/82/4
f 31/14/4 14/61/4 41/83/4 39/15/4
f 44/84/5 35/85/5 36/86/5 38/87/5
f 39/15/7 37/88/7 34/89/7 33/16/7
f 41/83/7 40/90/7 37/88/7 39/15/7
f 43/91/5 42/92/5 35/85/5 44/84/5
f 32/80/4 11/93/4 43/94/4 44/81/4
f 14/95/1 6/96/1 40/97/1 41/98/1
f 4/97/12 29/99/12 35/100/12 42/101/12
f 30/102/12 2/103/12 34/104/12 37/105/12
f 6/96/2 30/106/2 37/99/2 40/97/2
f 11/98/3 4/97/3 42/101/3 43/107/3
f 8/6/1 13/108/1 38/109/1 36/7/1
f 2/103/3 12/110/3 33/111/3 34/104/3
f 18/112/13 19/113/13 46/114/13 45/115/13
f 9/116/13 10/117/13 48/118/13 47/119/13
f 10/117/13 18/112/13 45/115/13 48/118/13
f 19/113/13 9/116/13 47/119/13 46/114/13
f 50/120/13 49/121/13 52/122/13 51/123/13
f 19/124/14 18/125/14 49/126/14 50/127/14
f 9/128/5 19/129/5 50/130/5 51/126/5
f 10/131/15 9/132/15 51/133/15 52/134/15
f 71/76/7 75/135/7 53/136/7 58/77/7
f 75/137/1 74/138/1 54/139/1 53/140/1
f 73/18/5 76/141/5 56/142/5 57/19/5
f 76/140/3 72/139/3 55/143/3 56/144/3
f 63/145/3 64/146/3 45/147/3 46/148/3
f 59/149/16 60/150/16 67/151/16 68/152/16
f 60/153/3 59/154/3 64/146/3 63/145/3
f 59/154/3 61/155/3 65/10/3 64/146/3
f 62/156/3 60/153/3 63/145/3 66/11/3
f 61/155/3 62/156/3 66/11/3 65/10/3
f 70/157/3 69/158/3 68/159/3 67/160/3
f 62/161/4 61/162/4 69/163/4 70/164/4
f 61/162/7 59/71/7 68/165/7 69/163/7
f 60/166/5 62/167/5 70/168/5 67/169/5
f 7/170/17 88/171/17 72/75/17 76/172/17
f 85/173/18 7/174/18 76/141/18 73/18/18
f 94/175/19 86/176/19 74/177/19 75/135/19
f 87/178/20 94/175/20 75/135/20 71/76/20
f 88/171/20 87/178/20 71/76/20 72/75/20
f 86/179/18 85/173/18 73/18/18 74/17/18
f 98/180/3 97/181/3 99/182/3 100/8/3
f 88/183/16 7/43/16 98/184/16 100/185/16
f 20/186/4 21/62/4 99/187/4 97/188/4
f 15/189/11 84/190/11 124/191/11 112/192/11
f 103/193/1 104/194/1 101/195/1 102/160/1
f 90/50/4 22/196/4 101/197/4 104/198/4
f 28/199/6 92/25/6 107/28/6 113/200/6
f 86/201/16 94/202/16 103/203/16 102/204/16
f 3/205/21 23/206/21 85/173/21 86/179/21
f 5/207/22 25/208/22 87/178/22 88/171/22
f 15/209/22 27/210/22 89/60/22 90/50/22
f 92/211/21 28/212/21 91/68/21 20/59/21
f 23/206/21 93/213/21 7/174/21 85/173/21
f 25/208/22 1/214/22 94/175/22 87/178/22
f 27/210/22 95/215/22 21/62/22 89/60/22
f 28/212/21 96/216/21 22/66/21 91/68/21
f 78/217/21 77/218/21 97/219/21 98/220/21
f 80/221/22 79/222/22 100/223/22 99/187/22
f 79/222/22 5/207/22 88/171/22 100/223/22
f 95/215/22 80/221/22 99/187/22 21/62/22
f 93/213/21 78/217/21 98/220/21 7/174/21
f 77/218/21 92/211/21 20/59/21 97/219/21
f 83/224/21 81/225/21 102/226/21 101/227/21
f 82/228/22 84/229/22 104/198/22 103/230/22
f 81/225/21 3/205/21 86/179/21 102/226/21
f 96/216/21 83/224/21 101/227/21 22/66/21
f 84/229/22 15/209/22 90/50/22 104/198/22
f 1/214/22 82/228/22 103/230/22 94/175/22
f 113/231/23 107/232/23 117/233/23 118/234/23 108/235/23 114/236/23 106/237/23 122/238/23 121/239/23 105/240/23
f 95/72/11 27/241/11 115/242/11 109/73/11
f 81/243/1 83/244/1 121/245/1 122/246/1
f 96/247/6 28/199/6 113/200/6 105/248/6
f 23/69/10 3/249/10 106/250/10 114/70/10
f 84/251/1 82/252/1 123/253/1 124/254/1
f 77/255/3 78/256/3 118/257/3 117/258/3
f 25/40/9 5/259/9 110/260/9 116/41/9
f 3/249/10 81/261/10 122/262/10 106/250/10
f 79/263/3 80/264/3 119/265/3 120/266/3
f 27/241/11 15/189/11 112/192/11 115/242/11
f 83/267/6 96/247/6 105/248/6 121/268/6
f 5/259/9 79/269/9 120/270/9 110/260/9
f 115/271/24 112/272/24 124/234/24 123/273/24 111/274/24 116/41/24 110/260/24 120/270/24 119/238/24 109/275/24
